# xmcd
# Track frame offsets:
# 150
# 17440
# 33121
# 45384
# 59960
# 75707
# 92550
# 109016
# 128351
# 141604
# 158663
# 174734
# 192242
# 208165
# 224007
# 239128
# 254752
# 268277
# 280061
# 294226
#
# Disc length: 4119 seconds
# Revision: 0
# Processed by: cddbd v1.5.2PL0 Copyright (c) Steve Scherf et al.
# Submitted via: VisiTrax 2.11.3.279 - For more info visit www.synapsa.com
#
DISCID=33101514
DTITLE=Various Artist - Just Country [CD1]
DYEAR=2018
DGENRE=Country
TTITLE0=Dolly Parton, Linda Ronstadt and Emmylou Harris - To Know Him Is To Lov
TTITLE0=e Him
TTITLE1=Kenny Rogers - The Gambler
TTITLE2=Patsy Cline - Crazy
TTITLE3=Glen Campbell - Rhinestone Cowboy
TTITLE4=Band, The - The Night They Drove Old Dixie Down
TTITLE5=Lucinda Williams - Sidewalks Of The City
TTITLE6=Gram Parsons - Love Hurts
TTITLE7=Doobie Brothers, The - Black Water
TTITLE8=Little Feat - Willin'
TTITLE9=Cole Swindell - Middle Of A Memory
TTITLE10=Jesse and Joy - Echoes Of Love
TTITLE11=Gloriana - (Kissed You) Good Night
TTITLE12=Big and Rich - Lost In This Moment
TTITLE13=Whitney Duncan - Skinny Dippin'
TTITLE14=Paul Brandt - My Heart Has A History
TTITLE15=Holly Dunn - Daddy's Hands
TTITLE16=Ray Scott - My Kind Of Music
TTITLE17=Gene Parsons - Drunkard's Dream
TTITLE18=John Michael Montgomery - Life's A Dance
TTITLE19=Eric Weissberg And Steve Mandell - Duelling Banjos
EXTD=UPC: 0190295837587   \nLabel: Rhino - 0190295837587   \nPub: 2018 Rhin
EXTD=o UK
EXTT0=
EXTT1=
EXTT2=
EXTT3=
EXTT4=
EXTT5=
EXTT6=
EXTT7=
EXTT8=
EXTT9=
EXTT10=
EXTT11=
EXTT12=
EXTT13=
EXTT14=
EXTT15=
EXTT16=
EXTT17=
EXTT18=
EXTT19=
PLAYORDER=
